<?xml version="1.0" standalone="no"?>
<!DOCTYPE svg PUBLIC "-//W3C//DTD SVG 20010904//EN"
 "http://www.w3.org/TR/2001/REC-SVG-20010904/DTD/svg10.dtd">
<svg version="1.0" xmlns="http://www.w3.org/2000/svg"
 width="1024.000000pt" height="1024.000000pt" viewBox="0 0 1024.000000 1024.000000"
 preserveAspectRatio="xMidYMid meet">

<g transform="translate(0.000000,1024.000000) scale(0.100000,-0.100000)"
fill="#000000" stroke="none">
<path d="M5101 7618 c-12 -36 -48 -175 -176 -663 -46 -176 -111 -422 -144
-547 -34 -125 -61 -233 -61 -242 0 -8 24 -72 54 -143 50 -118 92 -220 274
-660 37 -89 71 -161 75 -160 16 5 397 942 397 977 0 21 -156 604 -269 1010
-32 113 -73 262 -92 332 -19 71 -37 128 -41 128 -3 0 -11 -15 -17 -32z"/>
<path d="M3168 6493 c48 -60 250 -310 447 -557 198 -247 369 -459 380 -472 16
-19 70 -36 305 -94 379 -94 662 -161 666 -157 4 4 -414 815 -436 846 -12 18
-73 44 -246 106 -271 97 -571 207 -928 339 -142 53 -263 96 -268 96 -4 0 31
-48 80 -107z"/>
<path d="M7020 6543 c-428 -161 -860 -317 -1115 -403 l-170 -57 -31 -54 c-68
-119 -425 -811 -421 -815 4 -5 913 211 953 226 11 5 79 79 150 167 115 140
644 806 734 923 19 25 39 48 44 52 33 23 -17 9 -144 -39z"/>
<path d="M3813 5048 c-78 -62 -276 -219 -440 -348 -468 -368 -495 -390 -486
-391 47 -5 395 18 878 56 171 14 348 28 395 31 l85 7 352 350 c194 193 351
352 349 354 -4 5 -602 39 -831 48 l-160 6 -142 -113z"/>
<path d="M5975 5149 c-66 -5 -248 -15 -404 -23 -156 -9 -285 -17 -287 -19 -4
-3 354 -359 581 -578 l130 -126 80 -6 c44 -4 249 -20 456 -37 421 -34 772 -60
807 -60 24 0 -33 51 -214 191 -54 42 -497 391 -743 587 l-104 82 -91 -1 c-50
-1 -145 -6 -211 -10z"/>
<path d="M4979 4917 c-19 -23 -163 -193 -319 -377 -155 -184 -291 -344 -302
-356 -14 -16 -32 -99 -77 -365 -78 -455 -180 -1039 -185 -1062 -7 -30 15 -6
116 126 211 274 647 839 725 937 l83 105 0 495 c0 272 3 505 6 518 9 33 -7 26
-47 -21z"/>
<path d="M5233 4440 l1 -520 254 -332 c410 -538 641 -836 652 -843 5 -3 8 0 5
7 -5 13 -17 86 -160 922 -46 274 -90 506 -97 515 -20 25 -287 339 -448 525
-80 93 -159 186 -177 208 l-31 38 1 -520z"/>
</g>
</svg>
