<?xml version="1.0" encoding="UTF-8"?>
<svg version="1.1" xmlns="http://www.w3.org/2000/svg" width="1024" height="1024">
<path d="M0 0 C0.66 0 1.32 0 2 0 C2.2263916 1.19214111 2.4527832 2.38428223 2.68603516 3.61254883 C4.97665249 15.47410752 7.67581188 27.18513562 10.6619873 38.88955688 C11.39276509 41.75721226 12.11588061 44.62670614 12.83691406 47.49682617 C14.58333782 54.44624697 16.33181883 61.39513136 18.10839844 68.33691406 C18.99963837 71.82619408 19.87674859 75.31868528 20.75 78.8125 C21.00185059 79.77567139 21.25370117 80.73884277 21.51318359 81.73120117 C21.73055176 82.6101001 21.94791992 83.48899902 22.171875 84.39453125 C22.4517627 85.49051636 22.4517627 85.49051636 22.73730469 86.60864258 C23.43137978 92.92691905 21.27207292 98.51898346 19.015625 104.28515625 C18.56941803 105.45237465 18.56941803 105.45237465 18.11419678 106.64317322 C17.1662929 109.11896924 16.20858778 111.59082348 15.25 114.0625 C14.00258084 117.30237841 12.75901562 120.54373003 11.515625 123.78515625 C11.21458862 124.56774811 10.91355225 125.35033997 10.60339355 126.15664673 C7.95399922 133.06479691 5.44418895 140.01670462 3 147 C7.73248715 141.76528972 12.04825111 136.38200009 16.125 130.625 C16.67341553 129.85913574 17.22183105 129.09327148 17.78686523 128.30419922 C19.52833837 125.8721291 21.26459312 123.43640157 23 121 C25.34937355 117.70487428 27.70442952 114.4139055 30.0625 111.125 C30.5982666 110.37041504 31.1340332 109.61583008 31.68603516 108.83837891 C32.4466626 107.77756104 32.4466626 107.77756104 33.22265625 106.6953125 C33.66359619 106.07672363 34.10453613 105.45813477 34.55883789 104.82080078 C37.72555031 100.81989595 40.17295249 98.5961584 45.12890625 97.17578125 C46.15000488 96.87414062 47.17110352 96.5725 48.22314453 96.26171875 C49.32513184 95.94847656 50.42711914 95.63523437 51.5625 95.3125 C53.92661547 94.61349232 56.28987288 93.91157726 58.65234375 93.20703125 C59.86905762 92.84561035 61.08577148 92.48418945 62.33935547 92.11181641 C68.13812295 90.35060612 73.8814871 88.43258009 79.625 86.5 C80.73109619 86.1299585 81.83719238 85.75991699 82.97680664 85.37866211 C88.63595196 83.48153643 94.28607505 81.56001822 99.9296875 79.6171875 C101.03489746 79.24013672 102.14010742 78.86308594 103.27880859 78.47460938 C105.38074629 77.7570766 107.48017793 77.03214773 109.57666016 76.29882812 C110.5104248 75.98107422 111.44418945 75.66332031 112.40625 75.3359375 C113.22416016 75.05282715 114.04207031 74.7697168 114.88476562 74.47802734 C117 74 117 74 120 75 C119.43152344 75.556875 118.86304688 76.11375 118.27734375 76.6875 C113.99289202 80.92188301 109.86164679 85.20825617 105.9375 89.77734375 C103.54677041 92.51993475 101.08904056 95.19851303 98.625 97.875 C86.11385833 111.46694741 86.11385833 111.46694741 74.109375 125.50390625 C73.58770752 126.13006836 73.06604004 126.75623047 72.52856445 127.40136719 C71.48996091 128.64890263 70.45943067 129.90321651 69.43823242 131.16503906 C68.95201416 131.74608398 68.4657959 132.32712891 67.96484375 132.92578125 C67.32470337 133.70562378 67.32470337 133.70562378 66.67163086 134.5012207 C62.24017983 138.47444662 56.7807327 139.72068474 51.1015625 140.90234375 C50.34894135 141.06618057 49.59632019 141.2300174 48.82089233 141.39881897 C46.42382837 141.91931907 44.02462796 142.42896476 41.625 142.9375 C38.49137511 143.6095452 35.35876927 144.28622213 32.2265625 144.96484375 C31.46120178 145.1300351 30.69584106 145.29522644 29.9072876 145.46542358 C22.22777077 147.138066 14.61090913 149.041435 7 151 C15.23907657 151.85935495 23.26859638 152.02016208 31.53515625 151.74609375 C33.4355224 151.69632211 35.33591387 151.6475088 37.23632812 151.59960938 C40.15629165 151.52573285 43.07174771 151.43706727 45.98950195 151.30053711 C56.92670952 150.80977086 65.46882245 150.48243282 73.97616577 158.03157043 C75.34171969 159.32930511 76.67221288 160.66364894 78 162 C79.31606869 163.11953737 80.64109979 164.22875786 81.98046875 165.3203125 C83.05212536 166.25217386 84.12122033 167.18699085 85.1875 168.125 C89.7777032 172.1081872 94.42123934 175.98633599 99.19140625 179.75390625 C103.65438551 183.32304822 108.04242938 186.98301887 112.44238281 190.62939453 C117.83276049 195.08059426 123.30303401 199.41630503 128.88574219 203.62426758 C130.29283057 204.70457655 131.65219826 205.84657221 133 207 C133 207.66 133 208.32 133 209 C132.33101181 208.90010269 131.66202362 208.80020538 130.97276306 208.69728088 C127.74108994 208.2152573 124.50922655 207.73452199 121.27734375 207.25390625 C120.06320297 207.07291885 118.84906219 206.89193146 117.59812927 206.70545959 C110.16247132 205.60167992 102.7225181 204.54081204 95.27529907 203.51815796 C90.5537497 202.86006509 85.8385359 202.16222796 81.1237793 201.45727539 C78.72503468 201.10717412 76.32384135 200.77350249 73.9206543 200.45532227 C58.91558315 198.45404119 48.9036408 196.90895941 39 185 C37.21984863 183.4617486 35.41078575 181.95567717 33.5625 180.5 C29.42167653 177.16699613 25.35432319 173.76377439 21.3125 170.3125 C13.62307446 163.49106065 13.62307446 163.49106065 5 158 C12.84230586 168.2662913 20.97621126 178.33255002 29.37817383 188.14624023 C31.60417008 190.74858396 33.80549324 193.37108576 36 196 C36.43393066 196.51546387 36.86786133 197.03092773 37.31494141 197.56201172 C38.58478409 199.08687358 39.82408179 200.63700831 41.0625 202.1875 C41.77535156 203.06792969 42.48820313 203.94835937 43.22265625 204.85546875 C47.64138578 212.67322099 47.82161335 223.09921918 49.09375 231.86328125 C49.28764265 233.18551595 49.48178015 234.50771476 49.67614746 235.82987976 C50.1839618 239.28831759 50.68876306 242.74718812 51.19281006 246.20617676 C51.80138675 250.37903221 52.41321946 254.55141119 53.02490997 258.72381115 C53.50179817 261.97680406 53.97796037 265.22989591 54.45251465 268.48323059 C55.59870588 276.32791742 56.7829673 284.16598992 58 292 C57.34 292 56.68 292 56 292 C54.58984375 290.234375 54.58984375 290.234375 52.9375 287.75 C49.2085575 282.27167707 45.27340286 276.98083477 41.27734375 271.6953125 C39.92881266 269.90551895 38.58860135 268.10973079 37.25 266.3125 C31.32535423 258.3667276 25.32196817 250.49345754 19.15942383 242.72998047 C18.03356093 241.29822211 16.93140124 239.84760176 15.84985352 238.38208008 C14.01400334 235.92272638 14.01400334 235.92272638 11.67944336 233.6394043 C2.11432208 222.68503308 2.86263293 208.1355476 2.06420898 194.29364014 C1.85150736 190.75814161 1.59258097 187.22603696 1.33789062 183.69335938 C0.84744274 176.79816966 0.40721803 169.9005933 0 163 C-1.59399218 164.59399218 -1.24886053 166.33304444 -1.37304688 168.54467773 C-1.42980591 169.51336288 -1.48656494 170.48204803 -1.54504395 171.48008728 C-1.60236694 172.53724442 -1.65968994 173.59440155 -1.71875 174.68359375 C-1.78155151 175.76826431 -1.84435303 176.85293488 -1.90905762 177.97047424 C-2.11044459 181.45924696 -2.30558398 184.94833242 -2.5 188.4375 C-2.69528204 191.89447423 -2.89193334 195.35135901 -3.09094238 198.80812073 C-3.21465326 200.96174346 -3.33611575 203.11549693 -3.45495605 205.26939392 C-3.72642246 210.03809441 -4.0343768 214.8011935 -4.45141602 219.55957031 C-4.55487083 220.74005951 -4.55487083 220.74005951 -4.66041565 221.94439697 C-5.16885164 225.02210816 -6.48837984 226.91629795 -8.4375 229.3125 C-9.16066406 230.22902344 -9.88382812 231.14554688 -10.62890625 232.08984375 C-11.41136719 233.05019531 -12.19382812 234.01054688 -13 235 C-14.21169036 236.57815281 -15.42327035 238.1564055 -16.62817383 239.73974609 C-17.89312166 241.39876716 -19.16764595 243.04997728 -20.4453125 244.69921875 C-22.88952243 247.85485845 -25.32017772 251.0207644 -27.75 254.1875 C-32.42612407 260.27556757 -37.14743872 266.32816798 -41.87109375 272.37939453 C-46.1132696 277.82577834 -50.25864775 283.33374852 -54.328125 288.91015625 C-56 291 -56 291 -58 292 C-57.8548999 291.12529053 -57.7097998 290.25058105 -57.56030273 289.34936523 C-56.98289129 285.85677953 -56.40951538 282.36356262 -55.83752441 278.87008667 C-55.43408889 276.41675669 -55.02514295 273.96438197 -54.61621094 271.51196289 C-53.19671421 262.91499573 -51.87995221 254.3197609 -50.79359436 245.6736908 C-50.26367426 241.4593134 -49.70514867 237.24886823 -49.14724731 233.03811646 C-48.88470698 230.98892227 -48.63677208 228.93779812 -48.40426636 226.88497925 C-46.88529172 213.52609963 -44.87811818 205.42111619 -35 196 C-33.84754527 194.58441555 -32.71616675 193.15084766 -31.625 191.6875 C-28.53285803 187.66407763 -25.3661306 183.70507474 -22.1875 179.75 C-16.69356883 172.90729052 -11.31948586 165.97888299 -6 159 C-6.598125 159.309375 -7.19625 159.61875 -7.8125 159.9375 C-10 161 -10 161 -13 162 C-13 162.66 -13 163.32 -13 164 C-14.82167673 165.51447998 -16.65125155 166.91853867 -18.5625 168.3125 C-24.49749097 172.74721122 -30.09863206 177.47698331 -35.66088867 182.36767578 C-39.80395903 185.99863245 -44.029507 189.45253795 -48.4609375 192.73046875 C-50.1387858 193.93973231 -50.1387858 193.93973231 -51 196 C-53.8132782 196.68934631 -53.8132782 196.68934631 -57.62768555 197.31274414 C-58.3204509 197.42847275 -59.01321625 197.54420135 -59.72697449 197.66343689 C-62.02891369 198.04581132 -64.33270871 198.4154823 -66.63671875 198.78515625 C-68.23530175 199.04816702 -69.83375519 199.31196641 -71.43208313 199.57652283 C-75.65192808 200.27281574 -79.87344763 200.95839013 -84.09539795 201.64178467 C-88.37388788 202.33621192 -92.65074335 203.04055126 -96.92773438 203.74414062 C-104.46780868 204.98325203 -112.00927158 206.21357863 -119.55180359 207.43763733 C-122.70240095 207.95146489 -125.85157996 208.47301415 -129 209 C-127.5045292 205.40278644 -125.47293692 203.36902779 -122.5625 200.8125 C-121.21671875 199.62914062 -121.21671875 199.62914062 -119.84375 198.421875 C-116.20682295 195.32449207 -112.49943265 192.32021628 -108.78515625 189.31640625 C-105.94468638 186.95399582 -103.21824101 184.50170972 -100.5 182 C-96.09245577 177.94830565 -91.55751597 174.12124855 -86.8984375 170.36328125 C-83.10420223 167.26959885 -79.38357068 164.09226769 -75.67822266 160.89282227 C-74.65069758 160.01425406 -73.6114817 159.14918274 -72.5612793 158.29785156 C-70.97998325 157.02436801 -70.97998325 157.02436801 -69.57348633 155.56933594 C-63.7449606 150.33374546 -56.56023851 151.50271988 -49.1875 151.75 C-46.3269796 151.80775829 -43.46625063 151.84811482 -40.60546875 151.890625 C-39.88696747 151.90383789 -39.16846619 151.91705078 -38.42819214 151.93066406 C-31.27247261 152.04987403 -24.15007227 151.81628128 -17 151.5 C-15.88520264 151.45198242 -14.77040527 151.40396484 -13.62182617 151.35449219 C-11.08091466 151.24175204 -8.5403771 151.12411406 -6 151 C-9.7276612 150.11851276 -13.45733843 149.24584238 -17.1875 148.375 C-18.33903564 148.10429687 -19.49057129 147.83359375 -20.67700195 147.5546875 C-27.07743968 146.06923234 -33.4805449 144.68741853 -39.9375 143.4765625 C-41.23147705 143.2285791 -42.5254541 142.9805957 -43.85864258 142.72509766 C-46.36543207 142.2503693 -48.87570424 141.79359428 -51.3894043 141.35693359 C-58.46872941 140.0018544 -63.19864743 138.48998932 -68 133 C-68.73605469 132.16339844 -69.47210938 131.32679688 -70.23046875 130.46484375 C-70.87628906 129.63082031 -71.52210938 128.79679688 -72.1875 127.9375 C-75.67604307 123.56042202 -79.30990924 119.40208758 -83.125 115.3125 C-83.64408936 114.75546387 -84.16317871 114.19842773 -84.69799805 113.62451172 C-85.69478065 112.55497242 -86.69160484 111.48547186 -87.68847656 110.41601562 C-92.05080632 105.70612869 -96.18064145 100.78974625 -100.35375977 95.91308594 C-100.87639404 95.30239258 -101.39902832 94.69169922 -101.9375 94.0625 C-102.45562256 93.45696289 -102.97374512 92.85142578 -103.50756836 92.22753906 C-111.0089539 83.38868695 -111.0089539 83.38868695 -119 75 C-115.69570443 73.34785222 -112.51442835 75.22715295 -109.171875 76.32421875 C-108.36720795 76.58128098 -107.56254089 76.8383432 -106.73348999 77.10319519 C-104.06954721 77.95626444 -101.40942725 78.82046131 -98.75 79.6875 C-95.01387093 80.90497975 -91.27709572 82.12040916 -87.5390625 83.33203125 C-86.5841391 83.64213135 -85.6292157 83.95223145 -84.64535522 84.27172852 C-79.07363336 86.06454115 -73.48581395 87.74085918 -67.84143066 89.28968811 C-64.41018928 90.23151204 -60.99020036 91.21118365 -57.56994629 92.19204712 C-55.96285565 92.64095971 -54.3503771 93.07108668 -52.73278809 93.4805603 C-40.4840175 96.59309739 -34.68475147 101.31573618 -28.15324402 112.13330078 C-26.27242078 115.1776966 -24.16102471 118.03963175 -22.0625 120.9375 C-21.25057411 122.07500157 -20.43929354 123.21296427 -19.62890625 124.3515625 C-16.62623261 128.53514097 -13.5730959 132.68044745 -10.5 136.8125 C-9.9831665 137.5130249 -9.46633301 138.2135498 -8.93383789 138.93530273 C-6.44150131 142.49332317 -6.44150131 142.49332317 -3 145 C-3.22106415 144.41419662 -3.4421283 143.82839325 -3.66989136 143.22483826 C-5.97679735 137.11005266 -8.279797 130.99380612 -10.58056641 124.87670898 C-11.43894626 122.59606075 -12.29831076 120.31578285 -13.15869141 118.03588867 C-14.39746993 114.75276754 -15.63266424 111.46831694 -16.8671875 108.18359375 C-17.25059296 107.16978134 -17.63399841 106.15596893 -18.02902222 105.11143494 C-18.73633172 103.22552344 -19.43127875 101.33491036 -20.11140442 99.43902588 C-20.82847681 97.47079854 -21.62079644 95.53008154 -22.43579102 93.6003418 C-23.3389703 87.83695583 -21.64817984 82.78426051 -20.16015625 77.2109375 C-19.67176193 75.29346681 -19.18336796 73.37599603 -18.69499111 71.45852089 C-18.00481448 68.76814327 -17.29812794 66.0822017 -16.59191895 63.39599609 C-15.73163207 60.11194965 -14.88836031 56.82356292 -14.04492188 53.53515625 C-13.04183588 49.62606243 -12.03763001 45.71730629 -11.02383423 41.81097412 C-9.28249082 35.08910417 -7.58611099 28.35919705 -5.96826172 21.60644531 C-5.80589114 20.92878679 -5.64352057 20.25112827 -5.47622967 19.55293465 C-4.69981202 16.30456271 -3.93020688 13.05477112 -3.16676331 9.80331421 C-2.89573288 8.65988556 -2.62470245 7.51645691 -2.34545898 6.33837891 C-2.10874985 5.32836823 -1.87204071 4.31835754 -1.62815857 3.27774048 C-1 1 -1 1 0 0 Z " fill="#3565FE" transform="translate(238,352)"/>
<path d="M0 0 C3.96 0.33 7.92 0.66 12 1 C12.80358688 5.0179344 13.12187243 8.13561827 13.11352539 12.16723633 C13.11344986 13.38812454 13.11337433 14.60901276 13.11329651 15.86689758 C13.10813522 17.17539169 13.10297394 18.4838858 13.09765625 19.83203125 C13.09578961 21.19251961 13.09436687 22.55300865 13.09336853 23.91349792 C13.08956275 27.48255287 13.07974914 31.05156669 13.06866455 34.62060547 C13.05840863 38.26724695 13.05386197 41.91389511 13.04882812 45.56054688 C13.03812503 52.70704801 13.02107204 59.85352131 13 67 C8.79178334 68.09498116 5.36573392 68.27718946 1 68 C-1.27647905 66.14772475 -2.82059237 63.9472836 -4.42578125 61.5078125 C-5.11655762 60.46439697 -5.11655762 60.46439697 -5.82128906 59.39990234 C-6.31338867 58.64918457 -6.80548828 57.8984668 -7.3125 57.125 C-8.37614832 55.51552337 -9.43995754 53.90615307 -10.50390625 52.296875 C-11.06609863 51.44416016 -11.62829102 50.59144531 -12.20751953 49.71289062 C-15.37236289 44.92295064 -18.56309908 40.1502785 -21.75 35.375 C-23.8125 32.28125 -25.875 29.1875 -28 26 C-28 39.53 -28 53.06 -28 67 C-33 68 -33 68 -42 67 C-42 45.22 -42 23.44 -42 1 C-30 1 -30 1 -26.3125 4.625 C-25.16861604 6.39157379 -24.06782181 8.1864372 -23 10 C-21.62828078 12.12711927 -20.25299493 14.2519409 -18.875 16.375 C-18.12358542 17.56242882 -17.37228897 18.7499324 -16.62109375 19.9375 C-11.62406574 27.76202785 -6.27326808 35.36031763 -1 43 C-0.67 41.68 -0.34 40.36 0 39 C-0.99 38.505 -0.99 38.505 -2 38 C-1.83628906 37.32348389 -1.67257812 36.64696777 -1.50390625 35.94995117 C-0.91664875 32.51204788 -0.90537881 29.28882965 -0.9375 25.80078125 C-0.94128662 25.12452194 -0.94507324 24.44826263 -0.94897461 23.75151062 C-0.96112754 21.60510695 -0.9797674 19.45884177 -1 17.3125 C-1.02654871 14.47526425 -1.04654514 11.63809407 -1.0625 8.80078125 C-1.07410156 7.54434814 -1.08570313 6.28791504 -1.09765625 4.9934082 C-1 2 -1 2 0 0 Z " fill="#3766FD" transform="translate(446,435)"/>
<path d="M0 0 C1.39456452 0.00667256 2.78911118 0.01863093 4.18359375 0.03515625 C5.2499707 0.04192383 5.2499707 0.04192383 6.33789062 0.04882812 C8.09899388 0.06064761 9.86005411 0.07858362 11.62109375 0.09765625 C14.32571508 7.42550251 17.02932118 14.75372246 19.7316494 22.08241463 C20.98662082 25.48578982 22.2419351 28.8890377 23.49804688 32.29199219 C24.71135724 35.57903215 25.92374876 38.86640968 27.13551712 42.1540184 C27.82061961 44.01202032 28.50666114 45.8696759 29.19271851 47.72732544 C29.61300323 48.86805511 30.03328796 50.00878479 30.46630859 51.18408203 C31.01924088 52.68299484 31.01924088 52.68299484 31.58334351 54.21218872 C31.92580109 55.16439301 32.26825867 56.11659729 32.62109375 57.09765625 C33.01616119 58.12712372 33.41122864 59.15659119 33.81826782 60.21725464 C34.62109375 63.09765625 34.62109375 63.09765625 33.62109375 67.09765625 C29.66109375 67.09765625 25.70109375 67.09765625 21.62109375 67.09765625 C21.28335938 66.26621094 20.945625 65.43476562 20.59765625 64.578125 C19.92863281 62.94810547 19.92863281 62.94810547 19.24609375 61.28515625 C18.80523437 60.20621094 18.364375 59.12726562 17.91015625 58.015625 C16.67318185 54.99035513 16.67318185 54.99035513 14.62109375 52.09765625 C12.20538245 51.58861241 12.20538245 51.58861241 9.39453125 51.5859375 C7.84765625 51.53276367 7.84765625 51.53276367 6.26953125 51.47851562 C5.18929687 51.45595703 4.1090625 51.43339844 2.99609375 51.41015625 C1.908125 51.37599609 0.82015625 51.34183594 -0.30078125 51.30664062 C-2.99338688 51.22397291 -5.68565916 51.15488538 -8.37890625 51.09765625 C-8.57226562 51.83371094 -8.765625 52.56976562 -8.96484375 53.328125 C-9.35542969 54.79185547 -9.35542969 54.79185547 -9.75390625 56.28515625 C-10.13675781 57.72955078 -10.13675781 57.72955078 -10.52734375 59.203125 C-11.37890625 62.09765625 -11.37890625 62.09765625 -13.37890625 67.09765625 C-18.32890625 67.09765625 -23.27890625 67.09765625 -28.37890625 67.09765625 C-26.0430962 59.91114733 -23.47085887 52.82485291 -20.85058594 45.73757935 C-16.99023102 35.29382399 -13.17257293 24.83882709 -9.57324219 14.30151367 C-4.69990935 0.13583553 -4.69990935 0.13583553 0 0 Z M3.62109375 15.09765625 C2.65708393 17.59559364 1.69981828 20.09579284 0.74609375 22.59765625 C0.34197266 23.64179687 0.34197266 23.64179687 -0.0703125 24.70703125 C-1.87123 29.45091149 -3.23204788 34.15391726 -4.37890625 39.09765625 C0.90109375 39.09765625 6.18109375 39.09765625 11.62109375 39.09765625 C10.02663682 30.83547032 7.36091306 23.03476639 4.62109375 15.09765625 C4.29109375 15.09765625 3.96109375 15.09765625 3.62109375 15.09765625 Z " fill="#3766FD" transform="translate(429.37890625,522.90234375)"/>
<path d="M0 0 C4.62 0 9.24 0 14 0 C15.98157492 5.72709073 17.95689091 11.45628775 19.92651367 17.1875 C20.59700966 19.13567862 21.26919284 21.08327744 21.94311523 23.03027344 C22.91316968 25.83376658 23.87707759 28.63930937 24.83984375 31.4453125 C25.14091537 32.31116974 25.441987 33.17702698 25.75218201 34.06912231 C27.22143225 38.37071022 28.42931947 42.46679759 29 47 C29.66 47 30.32 47 31 47 C31.11102051 46.34314209 31.22204102 45.68628418 31.33642578 45.00952148 C32.17619923 41.20088009 33.38408679 37.5424251 34.6171875 33.84765625 C34.87501007 33.06990341 35.13283264 32.29215057 35.39846802 31.49082947 C35.94331686 29.8505558 36.48972609 28.21079972 37.03759766 26.5715332 C37.87043461 24.07617887 38.69524874 21.57826928 39.51953125 19.08007812 C40.05159652 17.48160871 40.58413319 15.88329611 41.1171875 14.28515625 C41.36105194 13.54435318 41.60491638 12.80355011 41.85617065 12.04029846 C43.27044119 7.83468866 44.90988117 3.93086166 47 0 C51.29 0 55.58 0 60 0 C61 2 61 2 60.47055054 4.04449463 C60.16364288 4.88607117 59.85673523 5.72764771 59.54052734 6.59472656 C59.19621674 7.55042542 58.85190613 8.50612427 58.49716187 9.49078369 C58.11395782 10.53023132 57.73075378 11.56967896 57.3359375 12.640625 C56.75230942 14.25127838 56.75230942 14.25127838 56.15689087 15.89447021 C54.90336006 19.34894281 53.63938682 22.79948789 52.375 26.25 C51.13713248 29.65136075 49.90134571 33.05347194 48.66583252 36.45568848 C47.8672389 38.64948474 47.06547635 40.84213021 46.26043701 43.03356934 C44.59502063 47.57067433 42.94281948 52.10389442 41.43847656 56.69726562 C41.21680817 57.36336853 40.99513977 58.02947144 40.76675415 58.71575928 C40.21636507 60.38796779 39.68458282 62.06627119 39.15478516 63.74511719 C38 66 38 66 36.07958984 66.83300781 C33.02912004 67.07796219 30.05946215 67.10734955 27 67 C25.7612915 67.02199463 25.7612915 67.02199463 24.49755859 67.04443359 C22 66 22 66 21.03277588 64.37237549 C20.06751909 61.99714872 19.25820689 59.60598168 18.4765625 57.1640625 C18.01266617 55.80213272 18.01266617 55.80213272 17.53939819 54.41268921 C16.54826246 51.4896581 15.58598181 48.55806684 14.625 45.625 C13.66864719 42.76952062 12.70643505 39.91606179 11.74383545 37.06268311 C11.10765097 35.17291871 10.47487355 33.2820039 9.84552002 31.38995361 C7.43810512 24.17800167 4.84899459 17.04547256 2.10098267 9.95620728 C0.74570435 6.38967239 0 3.86416125 0 0 Z " fill="#3767FD" transform="translate(656,436)"/>
<path d="M0 0 C5.80453838 3.5069086 9.56110584 8.17466554 11.85449219 14.60351562 C12.51679521 17.72739891 12.49320724 20.64929778 12.453125 23.83984375 C12.4418457 25.00580078 12.43056641 26.17175781 12.41894531 27.37304688 C12.40444336 28.25927734 12.38994141 29.14550781 12.375 30.05859375 C8.15747482 30.08332439 3.93998814 30.10146828 -0.27758789 30.11352539 C-1.71216568 30.11855217 -3.14673836 30.12537454 -4.58129883 30.1340332 C-6.64405582 30.14617127 -8.70674504 30.15183861 -10.76953125 30.15625 C-12.01065674 30.16148682 -13.25178223 30.16672363 -14.53051758 30.17211914 C-17.625 30.05859375 -17.625 30.05859375 -20.625 29.05859375 C-20.00802681 30.54112642 -19.38116104 32.01954549 -18.75 33.49609375 C-18.40195312 34.31980469 -18.05390625 35.14351563 -17.6953125 35.9921875 C-16.8005063 38.2160609 -16.8005063 38.2160609 -14.625 39.05859375 C-11.56955457 39.47879253 -8.6725855 39.56294769 -5.625 39.05859375 C-4.861875 38.23359375 -4.09875 37.40859375 -3.3125 36.55859375 C0.00812935 33.46963621 1.26235648 33.72024595 5.6875 33.74609375 C7.58450296 33.82618435 9.48117836 33.92267354 11.375 34.05859375 C12.375 37.05859375 12.375 37.05859375 11.5546875 38.9609375 C7.77979723 44.84931424 4.18213991 48.81802887 -2.625 51.05859375 C-10.62364564 51.82890005 -19.07804101 52.37702599 -25.625 47.05859375 C-32.33076004 40.69942356 -34.26653289 34.43560039 -34.875 25.30859375 C-34.76225674 17.95209607 -32.35170741 10.70438316 -27.625 5.05859375 C-19.93169759 -1.4199767 -9.67656679 -3.47031637 0 0 Z M-17.625 12.05859375 C-18.69731012 14.35959255 -19.70582135 16.69225585 -20.625 19.05859375 C-17.85449974 19.25327755 -15.08386998 19.43962167 -12.3125 19.62109375 C-11.52681641 19.67716797 -10.74113281 19.73324219 -9.93164062 19.79101562 C-9.17431641 19.83935547 -8.41699219 19.88769531 -7.63671875 19.9375 C-6.59197388 20.00819702 -6.59197388 20.00819702 -5.52612305 20.08032227 C-3.39860172 20.1527749 -3.39860172 20.1527749 -0.625 19.05859375 C-1.17532098 15.62796545 -1.17532098 15.62796545 -2.625 12.05859375 C-8.3210214 8.30164347 -11.91998335 8.37410383 -17.625 12.05859375 Z " fill="#3666FD" transform="translate(501.625,451.94140625)"/>
<path d="M0 0 C5.89505384 3.92260671 9.18008322 9.9871305 10.8125 16.75 C10.95330064 20.5516174 11.00423572 24.32106374 10.9375 28.125 C8.24042314 29.02402562 6.67760623 29.25337799 3.91015625 29.2578125 C2.72933472 29.26071289 2.72933472 29.26071289 1.5246582 29.26367188 C0.691521 29.25916016 -0.14161621 29.25464844 -1 29.25 C-1.84796143 29.24806641 -2.69592285 29.24613281 -3.56958008 29.24414062 C-10.10214112 29.19947778 -16.56752868 28.85098482 -23.0625 28.125 C-22.44552681 29.60753267 -21.81866104 31.08595174 -21.1875 32.5625 C-20.83945312 33.38621094 -20.49140625 34.20992188 -20.1328125 35.05859375 C-19.2380063 37.28246715 -19.2380063 37.28246715 -17.0625 38.125 C-13.67970753 38.54410703 -10.43764874 38.63262237 -7.0625 38.125 C-6.27875 37.3 -5.495 36.475 -4.6875 35.625 C-1.41746478 32.51068074 -0.15730683 32.78678642 4.25 32.8125 C6.14700296 32.8925906 8.04367836 32.98907979 9.9375 33.125 C9.80015795 38.61868187 7.51078471 41.52896003 3.8671875 45.35546875 C-2.24752194 50.96268206 -8.45819741 50.47441063 -16.44140625 50.5234375 C-22.29235845 49.87964341 -26.87527573 47.20203416 -31.0625 43.125 C-36.14593649 34.69809522 -36.77367806 26.79897003 -36.0625 17.125 C-34.2908902 9.99266416 -31.10867614 3.78152247 -24.75 -0.1875 C-17.34918809 -3.56914439 -7.33639094 -3.49411162 0 0 Z M-20.0625 11.125 C-22.43230013 14.07877498 -22.43230013 14.07877498 -22.0625 18.125 C-18.29949626 19.37933458 -14.79039091 19.23195422 -10.875 19.1875 C-10.12541016 19.18298828 -9.37582031 19.17847656 -8.60351562 19.17382812 C-6.75647617 19.16206354 -4.90947787 19.14412865 -3.0625 19.125 C-3.41395588 13.67437514 -3.41395588 13.67437514 -6.875 9.6875 C-12.18367401 7.08520882 -15.19643992 8.2688343 -20.0625 11.125 Z " fill="#3767FD" transform="translate(891.0625,452.875)"/>
<path d="M0 0 C5.41365108 6.226271 6.0752854 14.10378219 5.84765625 22.125 C5.18765625 23.115 4.52765625 24.105 3.84765625 25.125 C2.85765625 24.63 2.85765625 24.63 1.84765625 24.125 C-0.0651178 24.05175573 -1.98047147 24.04141811 -3.89453125 24.0625 C-5.04308594 24.07023437 -6.19164062 24.07796875 -7.375 24.0859375 C-9.80208423 24.11189562 -12.22916757 24.13793675 -14.65625 24.1640625 C-15.80738281 24.17179687 -16.95851563 24.17953125 -18.14453125 24.1875 C-19.72790283 24.20490234 -19.72790283 24.20490234 -21.34326172 24.22265625 C-23.80157148 24.13719441 -25.81174284 23.83977323 -28.15234375 23.125 C-27.53537056 24.60753267 -26.90850479 26.08595174 -26.27734375 27.5625 C-25.92929687 28.38621094 -25.58125 29.20992188 -25.22265625 30.05859375 C-24.32785005 32.28246715 -24.32785005 32.28246715 -22.15234375 33.125 C-20.50877568 33.22085131 -18.86119733 33.25483511 -17.21484375 33.25 C-16.33957031 33.25257813 -15.46429687 33.25515625 -14.5625 33.2578125 C-12.00775319 33.22322003 -12.00775319 33.22322003 -9.15234375 32.125 C-8.49234375 30.805 -7.83234375 29.485 -7.15234375 28.125 C-3.19234375 28.125 0.76765625 28.125 4.84765625 28.125 C3.58831068 34.42172784 1.11072878 38.40703472 -3.8359375 42.52734375 C-10.41843844 46.50515615 -19.0785205 46.27212526 -26.3984375 44.6171875 C-32.1040643 42.40609827 -36.59898178 38.69742631 -39.52734375 33.375 C-42.66185446 25.57151098 -42.62055097 14.34357092 -39.96484375 6.4375 C-36.26623036 -0.32203482 -32.36251598 -4.28363456 -25.15234375 -6.875 C-15.14131843 -9.13555411 -7.36849809 -7.27752898 0 0 Z M-25.15234375 6.125 C-26.51554131 8.42762958 -27.28343665 10.56655132 -28.15234375 13.125 C-24.06230516 14.27482602 -20.12057324 14.23594256 -15.90234375 14.1875 C-15.15726563 14.18298828 -14.4121875 14.17847656 -13.64453125 14.17382812 C-11.81376735 14.16209246 -9.98304502 14.1441585 -8.15234375 14.125 C-8.48887142 9.27248356 -8.48887142 9.27248356 -10.83984375 5.25 C-16.32479152 2.58164703 -20.10264512 2.53410319 -25.15234375 6.125 Z " fill="#3666FD" transform="translate(760.15234375,457.875)"/>
<path d="M0 0 C5.95703034 8.65609671 7.40681504 18.25059513 5.5390625 28.5390625 C3.60602544 35.15687173 -0.03940017 39.88528584 -5.625 43.875 C-12.44272989 47.104451 -21.25739124 47.23785072 -28.484375 45.3515625 C-34.91626062 42.43477716 -39.32976265 37.34724891 -41.875 30.8125 C-44.30695323 22.31513962 -44.04631131 12.93993163 -40 5 C-35.73762671 -1.69232441 -30.19252664 -5.00903916 -22.5625 -6.8125 C-13.73625942 -7.27703898 -6.88104713 -5.99239532 0 0 Z M-28 10 C-30.62385857 15.96331494 -30.18363154 21.72287206 -29 28 C-27.71640879 30.99504616 -26.81762602 32.38678048 -24.25 34.3125 C-20.35329061 35.5031612 -16.64670939 35.5031612 -12.75 34.3125 C-9.54255844 31.90691883 -8.30522452 29.4655437 -7.48828125 25.54296875 C-6.65249539 19.11730325 -7.00936017 13.81860887 -10 8 C-11.9051244 5.58195749 -13.08999169 5.14853794 -16.08203125 4.66015625 C-21.76608085 4.27367858 -24.58468645 5.13576554 -28 10 Z " fill="#3766FD" transform="translate(650,457)"/>
<path d="M0 0 C0.33 0.66 0.66 1.32 1 2 C3.64 2 6.28 2 9 2 C9.01981934 3.04454346 9.03963867 4.08908691 9.06005859 5.1652832 C9.13612114 9.0400405 9.22483728 12.91442257 9.31738281 16.78881836 C9.35566993 18.46582634 9.39052331 20.14291638 9.421875 21.82006836 C9.46753179 24.23060432 9.5255241 26.64057557 9.5859375 29.05078125 C9.59748871 29.80087967 9.60903992 30.55097809 9.62094116 31.32380676 C9.72695459 35.06127713 9.87619082 36.81428623 12 40 C14.09593974 40.51473516 14.09593974 40.51473516 16.4375 40.4375 C17.21996094 40.45683594 18.00242187 40.47617187 18.80859375 40.49609375 C21.08901745 40.17666785 21.08901745 40.17666785 22.60498047 38.47192383 C24.54284819 35.03809278 24.47874667 31.79700933 24.51171875 27.953125 C24.52966995 27.18192322 24.54762115 26.41072144 24.56611633 25.6161499 C24.62015769 23.16082168 24.6540942 20.70568714 24.6875 18.25 C24.72067864 16.58200434 24.75516882 14.91403421 24.79101562 13.24609375 C24.87588022 9.1642024 24.94272026 5.08236786 25 1 C26.97909398 0.97313447 28.95828971 0.95366625 30.9375 0.9375 C32.03964844 0.92589844 33.14179687 0.91429687 34.27734375 0.90234375 C37 1 37 1 38 2 C38.12263388 3.56448383 38.17779522 5.13432772 38.20532227 6.70336914 C38.2352401 8.20481224 38.2352401 8.20481224 38.26576233 9.73658752 C38.28247482 10.8251152 38.29918732 11.91364288 38.31640625 13.03515625 C38.33718735 14.14354355 38.35796844 15.25193085 38.37937927 16.39390564 C38.44499623 19.95003808 38.50381596 23.50624703 38.5625 27.0625 C38.60567368 29.46680493 38.64928758 31.87110199 38.69335938 34.27539062 C38.80068992 40.18351185 38.90243331 46.09170991 39 52 C36.27157939 53.36421031 34.39046682 52.87807211 31.375 52.5625 C30.37210938 52.46066406 29.36921875 52.35882813 28.3359375 52.25390625 C27.56507813 52.17011719 26.79421875 52.08632813 26 52 C25.67 50.68 25.34 49.36 25 48 C23.824375 48.9590625 23.824375 48.9590625 22.625 49.9375 C17.46351559 53.99295203 12.3896818 53.59380551 6 53 C1.08915865 50.71996652 -1.47820794 47.763385 -4 43 C-5.22940628 36.17499477 -5.34422371 29.30508311 -5.55761719 22.39208984 C-5.62526517 20.24157029 -5.70293797 18.09156088 -5.78125 15.94140625 C-5.82612552 14.57033216 -5.87041715 13.1992388 -5.9140625 11.828125 C-5.9548291 10.5896582 -5.9955957 9.35119141 -6.03759766 8.07519531 C-6 5 -6 5 -5 2 C-2.4375 0.8125 -2.4375 0.8125 0 0 Z " fill="#3766FD" transform="translate(526,450)"/>
<path d="M0 0 C3.17297528 1.97276289 5.41404711 4.04716102 7.3125 7.3125 C8.0625 11.125 8.0625 11.125 8.3125 14.3125 C6.37622231 14.42057131 4.43822244 14.4981225 2.5 14.5625 C0.88158203 14.63210938 0.88158203 14.63210938 -0.76953125 14.703125 C-3.6875 14.3125 -3.6875 14.3125 -5.359375 12.34765625 C-5.79765625 11.67605469 -6.2359375 11.00445312 -6.6875 10.3125 C-10.4506967 9.42301714 -14.06638665 8.64121692 -17.6875 10.3125 C-18.0175 11.3025 -18.3475 12.2925 -18.6875 13.3125 C-16.29480822 16.90153767 -14.82887251 16.9557085 -10.76171875 17.80273438 C-9.22803124 18.09787256 -7.69418003 18.39216154 -6.16015625 18.68554688 C-0.29959178 19.90777629 4.11930212 21.82687573 8.1875 26.4375 C9.87838838 30.75865919 9.96622893 34.73639747 9.3125 39.3125 C6.95577908 44.20722807 3.98437656 46.62865602 -0.6875 49.3125 C-6.94969387 51.39989796 -16.55588425 51.58593553 -22.8125 49.125 C-28.12168203 45.77790698 -31.32818161 42.14870864 -33.6875 36.3125 C-33.6875 34.9925 -33.6875 33.6725 -33.6875 32.3125 C-29.3975 32.3125 -25.1075 32.3125 -20.6875 32.3125 C-20.0275 34.2925 -19.3675 36.2725 -18.6875 38.3125 C-16.54173363 38.33935938 -14.39587355 38.35883088 -12.25 38.375 C-11.05503906 38.38660156 -9.86007812 38.39820313 -8.62890625 38.41015625 C-5.79876659 38.65151792 -5.79876659 38.65151792 -4.6875 37.3125 C-4.64686168 35.64632885 -4.644779 33.97861905 -4.6875 32.3125 C-9.29433783 30.7896805 -9.29433783 30.7896805 -14.078125 30.421875 C-17.40731284 30.2823282 -19.35638354 29.18839854 -22.25 27.5625 C-23.17941406 27.05203125 -24.10882812 26.5415625 -25.06640625 26.015625 C-28.35223768 23.88056911 -31.07490837 22.00988932 -32.4375 18.234375 C-33.11689247 12.33215289 -32.33216392 8.10696861 -28.6875 3.3125 C-21.06451878 -2.75477076 -9.01149754 -4.23267309 0 0 Z " fill="#3767FD" transform="translate(839.6875,452.6875)"/>
<path d="M0 0 C1 1 1 1 1.09765625 3.94140625 C1.08605469 5.13636719 1.07445312 6.33132813 1.0625 7.5625 C1.05347656 8.76003906 1.04445313 9.95757812 1.03515625 11.19140625 C1.02355469 12.11824219 1.01195312 13.04507812 1 14 C-0.485 13.9071875 -0.485 13.9071875 -2 13.8125 C-6.20468051 13.83819051 -10.55126911 14.4788588 -14 17 C-15.83055048 21.42502182 -16.23746764 25.16615617 -16.1953125 29.9296875 C-16.18886719 31.21875 -16.18242188 32.5078125 -16.17578125 33.8359375 C-16.15907463 35.18229442 -16.14214479 36.52864859 -16.125 37.875 C-16.11495664 39.24478517 -16.10583317 40.61457742 -16.09765625 41.984375 C-16.07414412 45.32309756 -16.0412793 48.66145761 -16 52 C-18.62329684 53.31164842 -20.63698625 53.13262846 -23.5625 53.125 C-24.55378906 53.12757813 -25.54507813 53.13015625 -26.56640625 53.1328125 C-29 53 -29 53 -30 52 C-30.09326716 50.43452952 -30.11745582 48.86487228 -30.11352539 47.29663086 C-30.11344986 46.29566879 -30.11337433 45.29470673 -30.11329651 44.26341248 C-30.10813522 43.1748848 -30.10297394 42.08635712 -30.09765625 40.96484375 C-30.0962413 39.85645645 -30.09482635 38.74806915 -30.09336853 37.60609436 C-30.08775033 34.04986931 -30.07519475 30.49370617 -30.0625 26.9375 C-30.05748734 24.53320403 -30.05292403 22.12890708 -30.04882812 19.72460938 C-30.03777499 13.81638496 -30.02101917 7.9081969 -30 2 C-27.47524538 0.73762269 -25.68799534 0.90143596 -22.875 0.9375 C-21.96492187 0.94652344 -21.05484375 0.95554687 -20.1171875 0.96484375 C-19.41851563 0.97644531 -18.71984375 0.98804688 -18 1 C-17.34 2.32 -16.68 3.64 -16 5 C-15.649375 4.54625 -15.29875 4.0925 -14.9375 3.625 C-10.73277527 0.09845668 -5.31672243 -0.37976589 0 0 Z " fill="#3867FD" transform="translate(604,450)"/>
<path d="M0 0 C0 4.62 0 9.24 0 14 C-2.31 14 -4.62 14 -7 14 C-11.98765012 15.41127387 -11.98765012 15.41127387 -15.17333984 19.17260742 C-16.15906924 22.54405814 -16.32439197 25.53868545 -16.4140625 29.05078125 C-16.43342865 29.70958786 -16.4527948 30.36839447 -16.4727478 31.04716492 C-16.53215941 33.13548143 -16.57877291 35.22385424 -16.625 37.3125 C-16.66321532 38.73504905 -16.70226909 40.15757584 -16.7421875 41.58007812 C-16.83782796 45.05318074 -16.92199973 48.52645132 -17 52 C-19.64458379 53.32229189 -21.67761301 53.09677194 -24.625 53.0625 C-25.62789062 53.05347656 -26.63078125 53.04445313 -27.6640625 53.03515625 C-28.43492187 53.02355469 -29.20578125 53.01195312 -30 53 C-30.16798375 45.91600638 -30.32791879 38.8318643 -30.48217773 31.74755859 C-30.53564745 29.3360581 -30.59098054 26.92459819 -30.64819336 24.51318359 C-30.72996565 21.05314894 -30.80510219 17.59302512 -30.87890625 14.1328125 C-30.90594131 13.04944611 -30.93297638 11.96607971 -30.96083069 10.84988403 C-30.98092697 9.8489975 -31.00102325 8.84811096 -31.02172852 7.81689453 C-31.04171402 6.93309113 -31.06169952 6.04928772 -31.08229065 5.13870239 C-31 3 -31 3 -30 1 C-26.04 1 -22.08 1 -18 1 C-17.34 2.32 -16.68 3.64 -16 5 C-15.2575 4.360625 -14.515 3.72125 -13.75 3.0625 C-8.84218941 -0.61835794 -6.505743 0 0 0 Z M-18 6 C-17 8 -17 8 -17 8 Z " fill="#3767FD" transform="translate(803,450)"/>
<path d="M0 0 C4.29 0 8.58 0 13 0 C13 22.11 13 44.22 13 67 C8.71 67 4.42 67 0 67 C0 44.89 0 22.78 0 0 Z " fill="#3866FC" transform="translate(470,523)"/>
<path d="M0 0 C0.33 0 0.66 0 1 0 C1 2.97 1 5.94 1 9 C1.99 9 2.98 9 4 9 C2.3001734 13.17230166 0.55512687 14.44487313 -3 18 C-2.01 12.06 -1.02 6.12 0 0 Z " fill="#3E6AF6" transform="translate(183,626)"/>
<path d="M0 0 C-2.31 2.31 -4.62 4.62 -7 7 C-7.66 5.68 -8.32 4.36 -9 3 C-6.07868595 -0.19953443 -4.37453972 -1.45817991 0 0 Z " fill="#426CF7" transform="translate(358,427)"/>
<path d="M0 0 C1.84765625 0.33984375 1.84765625 0.33984375 4.0625 0.9375 C5.16271484 1.22947266 5.16271484 1.22947266 6.28515625 1.52734375 C7.13400391 1.76130859 7.13400391 1.76130859 8 2 C7.67 2.66 7.34 3.32 7 4 C6.34 4 5.68 4 5 4 C4.67 4.66 4.34 5.32 4 6 C2.35 4.35 0.7 2.7 -1 1 C-0.67 0.67 -0.34 0.34 0 0 Z " fill="#406BF1" transform="translate(120,426)"/>
<path d="M0 0 C0.33 0 0.66 0 1 0 C1.27632268 1.43267304 1.52019671 2.87163335 1.75 4.3125 C1.88921875 5.11300781 2.0284375 5.91351562 2.171875 6.73828125 C2.11515625 7.48464844 2.0584375 8.23101563 2 9 C0.68 9.99 -0.64 10.98 -2 12 C-1.34 8.04 -0.68 4.08 0 0 Z " fill="#436BEB" transform="translate(182,632)"/>
<path d="M0 0 C0.66 0.33 1.32 0.66 2 1 C0.515 2.485 0.515 2.485 -1 4 C-0.34 4.66 0.32 5.32 1 6 C-0.98 6.33 -2.96 6.66 -5 7 C-3.70700306 4.11562221 -2.34058637 2.12780579 0 0 Z " fill="#426AEA" transform="translate(114,554)"/>
<path d="M0 0 C3 1 3 1 3 1 Z " fill="#4470F9" transform="translate(816,483)"/>
<path d="M0 0 C3 1 3 1 3 1 Z " fill="#3F6EF2" transform="translate(880,463)"/>
<path d="M0 0 C2 1 2 1 2 1 Z " fill="#436FF4" transform="translate(544,503)"/>
<path d="" fill="#416FFB" transform="translate(0,0)"/>
<path d="M0 0 C2 1 2 1 2 1 Z " fill="#436DF5" transform="translate(844,468)"/>
<path d="M0 0 C2 1 2 1 2 1 Z " fill="#416EF7" transform="translate(628,463)"/>
<path d="" fill="#476DE6" transform="translate(0,0)"/>
<path d="" fill="#436AE3" transform="translate(0,0)"/>
<path d="" fill="#456CE4" transform="translate(0,0)"/>
<path d="" fill="#4470EC" transform="translate(0,0)"/>
<path d="" fill="#436CF5" transform="translate(0,0)"/>
<path d="" fill="#426EF5" transform="translate(0,0)"/>
<path d="" fill="#456FF9" transform="translate(0,0)"/>
<path d="" fill="#466FF7" transform="translate(0,0)"/>
<path d="" fill="#4C6FE5" transform="translate(0,0)"/>
<path d="" fill="#3F6DFD" transform="translate(0,0)"/>
<path d="" fill="#3E6CF9" transform="translate(0,0)"/>
<path d="" fill="#466FF2" transform="translate(0,0)"/>
<path d="" fill="#3F6DFA" transform="translate(0,0)"/>
<path d="" fill="#416FFF" transform="translate(0,0)"/>
<path d="" fill="#406DFE" transform="translate(0,0)"/>
<path d="" fill="#4871F3" transform="translate(0,0)"/>
<path d="" fill="#3F6EFF" transform="translate(0,0)"/>
<path d="" fill="#4373FF" transform="translate(0,0)"/>
<path d="" fill="#3D70FF" transform="translate(0,0)"/>
<path d="" fill="#4470F1" transform="translate(0,0)"/>
<path d="" fill="#4670F2" transform="translate(0,0)"/>
<path d="" fill="#4770F5" transform="translate(0,0)"/>
<path d="" fill="#3F6DFD" transform="translate(0,0)"/>
<path d="" fill="#3F70FB" transform="translate(0,0)"/>
<path d="" fill="#456EF4" transform="translate(0,0)"/>
<path d="" fill="#406EFD" transform="translate(0,0)"/>
<path d="" fill="#426FF7" transform="translate(0,0)"/>
<path d="" fill="#4170FA" transform="translate(0,0)"/>
<path d="" fill="#4873EC" transform="translate(0,0)"/>
<path d="" fill="#3F70FB" transform="translate(0,0)"/>
<path d="" fill="#426DF6" transform="translate(0,0)"/>
<path d="" fill="#4572F8" transform="translate(0,0)"/>
<path d="" fill="#4570FA" transform="translate(0,0)"/>
<path d="" fill="#4570FA" transform="translate(0,0)"/>
<path d="" fill="#4771F6" transform="translate(0,0)"/>
<path d="" fill="#4570F6" transform="translate(0,0)"/>
<path d="" fill="#436EF8" transform="translate(0,0)"/>
<path d="" fill="#426DFB" transform="translate(0,0)"/>
<path d="" fill="#426DFA" transform="translate(0,0)"/>
<path d="" fill="#4671F5" transform="translate(0,0)"/>
<path d="" fill="#4773F9" transform="translate(0,0)"/>
<path d="" fill="#4670F6" transform="translate(0,0)"/>
<path d="" fill="#4871F4" transform="translate(0,0)"/>
<path d="" fill="#4772F6" transform="translate(0,0)"/>
<path d="" fill="#436EF8" transform="translate(0,0)"/>
<path d="" fill="#496FF2" transform="translate(0,0)"/>
<path d="" fill="#4770EF" transform="translate(0,0)"/>
<path d="" fill="#4770F4" transform="translate(0,0)"/>
<path d="" fill="#496FEC" transform="translate(0,0)"/>
<path d="" fill="#426FF7" transform="translate(0,0)"/>
<path d="" fill="#476DF4" transform="translate(0,0)"/>
<path d="" fill="#476FED" transform="translate(0,0)"/>
<path d="" fill="#446EF9" transform="translate(0,0)"/>
<path d="" fill="#4570F7" transform="translate(0,0)"/>
<path d="" fill="#456FEF" transform="translate(0,0)"/>
<path d="" fill="#446EF9" transform="translate(0,0)"/>
<path d="" fill="#4471F9" transform="translate(0,0)"/>
<path d="" fill="#5271D7" transform="translate(0,0)"/>
</svg>
